<svg xmlns="http://www.w3.org/2000/svg" viewBox="0 0 900 650" role="img" aria-label="Environmental compliance illustration">
  <defs>
    <linearGradient id="bg" x1="0" y1="0" x2="0" y2="1">
      <stop offset="0" stop-color="#ffffff"/>
      <stop offset="1" stop-color="#eef7f3"/>
    </linearGradient>
    <linearGradient id="accent" x1="0" y1="0" x2="1" y2="1">
      <stop offset="0" stop-color="#0b3d2e"/>
      <stop offset="1" stop-color="#1a8f6a"/>
    </linearGradient>
  </defs>
  <rect width="900" height="650" rx="36" fill="url(#bg)"/>
  <path d="M0 520c120-70 240-70 360 0s240 70 360 0 240-70 360 0v130H0z" fill="#dff3ea"/>

  <!-- Document -->
  <g transform="translate(130,120)">
    <rect x="0" y="0" width="320" height="420" rx="26" fill="#ffffff" stroke="#e5e7eb"/>
    <rect x="34" y="42" width="190" height="14" rx="7" fill="#e8f7f0"/>
    <rect x="34" y="74" width="250" height="14" rx="7" fill="#e8f7f0"/>
    <rect x="34" y="106" width="220" height="14" rx="7" fill="#e8f7f0"/>
    <rect x="34" y="168" width="250" height="14" rx="7" fill="#e8f7f0"/>
    <rect x="34" y="200" width="210" height="14" rx="7" fill="#e8f7f0"/>
    <rect x="34" y="232" width="240" height="14" rx="7" fill="#e8f7f0"/>
    <circle cx="250" cy="320" r="54" fill="url(#accent)"/>
    <path d="M232 320l14 14 30-34" fill="none" stroke="#e8f7f0" stroke-width="10" stroke-linecap="round" stroke-linejoin="round"/>
  </g>

  <!-- Shield + leaf -->
  <g transform="translate(520,150)">
    <path d="M180 0c70 52 140 52 210 0v170c0 120-86 210-210 240C56 380-30 290-30 170V0c70 52 140 52 210 0z" fill="#ffffff" stroke="#e5e7eb"/>
    <path d="M180 58c-70 10-120 75-120 140 0 52 30 95 78 110 28-35 74-70 132-82 38-8 75-9 110-6-5-78-75-170-200-162z" fill="url(#accent)"/>
    <path d="M60 225c45-60 122-102 234-118" fill="none" stroke="#0b3d2e" stroke-width="10" opacity=".2" stroke-linecap="round"/>
  </g>
</svg>
